<?xml version="1.0" encoding="UTF-8" standalone="no"?>
<!-- Created with Inkscape (http://www.inkscape.org/) -->
<svg
   xmlns:svg="http://www.w3.org/2000/svg"
   xmlns="http://www.w3.org/2000/svg"
   version="1.0"
   width="921.25983"
   height="177.16534"
   id="svg1878">
  <defs
     id="defs1880" />
  <g
     id="layer1">
    <g
       transform="matrix(3.543307e-5,0,0,3.543307e-5,7.119915e-4,-2.880859e-6)"
       style="fill-rule:evenodd"
       id="Ebene_x0020_1">
  
  <g
   id="_47774088">
   <path
   d="M 11523000,2500510 C 11335800,2309700 11220320,2047720 11220320,1759260 C 11220320,1174970 11693710,701120 12278000,700610 L 14181890,700610 L 14181890,1336200 L 12278000,1336200 C 12044870,1336660 11855910,1525810 11855910,1759260 C 11855910,1992670 12044870,2181810 12278000,2182320 L 13542740,2182320 L 13542740,2817540 L 12278000,2817540 C 12044870,2818050 11855910,3007520 11855910,3240600 C 11855910,3474190 12044870,3663340 12278000,3663480 L 14181890,3663480 L 14181890,4299250 L 12278000,4299250 C 11693710,4298740 11220320,3825030 11220320,3240600 C 11220320,2952140 11335800,2691460 11523000,2500510 L 11523000,2500510 z M 16403700,2389250 C 16635810,2390590 16823660,2578900 16824300,2811330 L 16824300,4299390 L 17459890,4299390 L 17459890,2811330 C 17459380,2227880 16986820,1755000 16403700,1753700 L 14708530,1753700 L 14708530,4295960 L 15343610,4295960 L 15343610,2389250 L 16403700,2389250 L 16403700,2389250 z M 23700250,3996570 C 23509160,4183910 23248760,4299390 22960160,4299390 C 22375870,4299390 21901830,3826040 21901370,3241760 L 21901370,701260 L 22536770,701260 L 22536770,3241760 C 22537560,3474980 22726890,3663990 22960160,3663990 C 23193700,3663990 23382900,3474980 23383220,3241760 L 23383220,1759400 L 24018760,1759400 L 24018760,3241760 C 24018950,3474980 24208410,3663990 24441680,3663990 C 24674770,3663990 24864240,3474980 24864420,3241760 L 24864420,701260 L 25499960,701260 L 25499960,3241760 C 25499500,3826040 25025780,4299390 24441680,4299390 C 24153040,4299390 23891200,4183910 23700250,3996570 L 23700250,3996570 z M 18728240,1336520 L 18728240,3028910 L 18093160,3028910 L 18093160,700930 L 20210090,700930 C 20794520,701260 21267910,1175300 21267910,1759400 C 21267910,2048180 21152430,2309880 20964910,2500830 C 21152430,2691920 21267910,2952320 21267910,3240790 C 21267910,3825400 20794520,4298930 20210090,4299390 L 18093160,4299390 L 18093160,3663990 L 20210090,3663990 C 20443500,3663480 20632320,3474330 20632320,3240790 C 20632320,3007520 20443500,2818190 20210090,2817860 L 19362810,2817860 L 19362810,2182460 L 20210090,2182460 C 20443500,2182320 20632320,1992810 20632320,1759400 C 20632320,1526180 20443500,1336850 20210090,1336520 L 18728240,1336520 L 18728240,1336520 z "
   style="fill:#009;fill-opacity:1"
   id="_94562272" />

   <path
   d="M 770960,2770500 C 621360,2770500 500000,2649320 500000,2499860 C 500000,2350210 621360,2229360 770960,2229360 L 10233290,2229360 L 10233290,2769660 L 4862580,2770500 L 770960,2770500 L 770960,2770500 z "
   style="fill:#fd951f;fill-opacity:1"
   id="_93913832" />

  </g>

 </g>
  </g>
</svg>
