<svg width="17" height="16" viewBox="0 0 17 16" fill="none" xmlns="http://www.w3.org/2000/svg">
<path fill-rule="evenodd" clip-rule="evenodd" d="M4.85795 10.6654C4.85795 10.2987 5.15795 9.9987 5.52462 9.9987C5.89128 9.9987 6.19128 10.2987 6.19128 10.6654C6.19128 11.032 5.89128 11.332 5.52462 11.332C5.15795 11.332 4.85795 11.032 4.85795 10.6654ZM8.19128 9.9987H10.858C11.2246 9.9987 11.5246 10.2987 11.5246 10.6654C11.5246 11.032 11.2246 11.332 10.858 11.332H8.19128C7.82462 11.332 7.52462 11.032 7.52462 10.6654C7.52462 10.2987 7.82462 9.9987 8.19128 9.9987ZM12.1913 13.332H4.19128C3.82395 13.332 3.52462 13.0327 3.52462 12.6654V8.66536H12.858V12.6654C12.858 13.0327 12.5586 13.332 12.1913 13.332M4.19128 3.9987H4.85795V4.66536C4.85795 5.03203 5.15795 5.33203 5.52462 5.33203C5.89128 5.33203 6.19128 5.03203 6.19128 4.66536V3.9987H10.1913V4.66536C10.1913 5.03203 10.4913 5.33203 10.858 5.33203C11.2246 5.33203 11.5246 5.03203 11.5246 4.66536V3.9987H12.1913C12.5586 3.9987 12.858 4.29803 12.858 4.66536V7.33203H3.52462V4.66536C3.52462 4.29803 3.82395 3.9987 4.19128 3.9987M12.1913 2.66536H11.5246V1.9987C11.5246 1.63203 11.2246 1.33203 10.858 1.33203C10.4913 1.33203 10.1913 1.63203 10.1913 1.9987V2.66536H6.19128V1.9987C6.19128 1.63203 5.89128 1.33203 5.52462 1.33203C5.15795 1.33203 4.85795 1.63203 4.85795 1.9987V2.66536H4.19128C3.08862 2.66536 2.19128 3.5627 2.19128 4.66536V12.6654C2.19128 13.768 3.08862 14.6654 4.19128 14.6654H12.1913C13.294 14.6654 14.1913 13.768 14.1913 12.6654V4.66536C14.1913 3.5627 13.294 2.66536 12.1913 2.66536" fill="#8F9BB3"/>
</svg>
