<?xml version="1.0" encoding="utf-8"?>
<!-- Generator: Adobe Illustrator 16.0.0, SVG Export Plug-In . SVG Version: 6.00 Build 0)  -->
<!DOCTYPE svg PUBLIC "-//W3C//DTD SVG 1.1//EN" "http://www.w3.org/Graphics/SVG/1.1/DTD/svg11.dtd">
<svg version="1.1" id="Ebene_1" xmlns="http://www.w3.org/2000/svg" xmlns:xlink="http://www.w3.org/1999/xlink" x="0px" y="0px"
	 width="61px" height="43px" viewBox="0 0 61 43" enable-background="new 0 0 61 43" xml:space="preserve">
<g>
	<path fill-rule="evenodd" clip-rule="evenodd" fill="#FFFFFF" d="M43.338,34.559c-4.795,4.791-11.574,6.4-17.698,4.814
		l-4.087,1.387c7.789,3.527,17.277,2.09,23.679-4.311c3.299-3.299,5.279-7.418,5.941-11.703l-3.326,2.459
		C46.977,29.893,45.475,32.422,43.338,34.559z"/>
	<path fill-rule="evenodd" clip-rule="evenodd" fill="#FFFFFF" d="M12.976,33.012c-5.685,1.83-6.23-4.879-3.46-7.551
		C9.59,27.537,10.748,30.307,12.976,33.012L12.976,33.012z M1.005,33.057L1.005,33.057c-1.501,4.096,0.309,6.35,5.43,6.758
		c3.697,0.242,7.431-0.441,11.184-1.227c16.887-4.207,29.975-13.303,42.887-23.955c-3.373,2.216-6.41,4.152-9.109,5.807
		c-0.252-5.052-2.307-10.031-6.164-13.888c-3.561-3.559-8.23-5.718-13.24-6.122c-6.208-0.5-12.264,1.73-16.656,6.122
		c-3.701,3.7-5.888,8.6-6.163,13.833c-0.023,0.44-0.033,0.88-0.028,1.321C6.452,23.83,2.331,29.615,1.005,33.057L1.005,33.057z
		 M48.738,22.043L48.738,22.043c0.143-4.904-1.656-9.854-5.4-13.597c-7.209-7.21-18.9-7.21-26.109,0
		c-5.026,5.027-8.061,15.544-2.614,21.292C22.458,38.02,40.254,27.072,48.738,22.043z"/>
	<path fill-rule="evenodd" clip-rule="evenodd" fill="#FFFFFF" d="M42.477,24.449v-1.594c-2.254,0.793-4.506,1.582-6.76,2.377v2.709
		C38.09,26.844,40.389,25.621,42.477,24.449z"/>
	<polygon fill-rule="evenodd" clip-rule="evenodd" fill="#FFFFFF" points="39.098,18.633 34.355,15.314 34.355,21.739 
		39.098,20.533 	"/>
	<path fill-rule="evenodd" clip-rule="evenodd" fill="#FFFFFF" d="M23.062,31.871V20.557l-5.085,2.937v7.594
		C20.738,32.09,20.79,32.104,23.062,31.871z"/>
	<path fill-rule="evenodd" clip-rule="evenodd" fill="#FFFFFF" d="M41.963,20.334l3.053-1.115v4.127l-1.266,0.697v-3.018
		l-1.787,0.653v0.006l-0.41,0.143l-0.357,0.133l-0.002-0.004l-6.75,2.373v4.131l-1.266,0.547v-5.57l7.52-2.646v-2.481l-8.373-5.939
		v16.993l-1.264,0.514c0-6.994,0-14.001,0-20.961l-9.368,6.725v2.878l2.416-1.394l0.947-0.551v15.282l-1.265,0.283V18.763
		l-2.098,1.211v0.01h-0.018l-4.772,2.756v8.154l-0.601-0.459c-0.183-0.141-0.363-0.289-0.537-0.438l-0.126-0.111v-7.875l4.792-2.766
		v-4.255L32.324,6.45v4.368l9.639,6.839V20.334z"/>
	<path fill-rule="evenodd" clip-rule="evenodd" fill="#FFFFFF" d="M30.28,28.818V12.151l-4.255,2.958v15.564
		C28.289,29.617,26.025,30.674,30.28,28.818z"/>
</g>
</svg>
