<?xml version="1.0" encoding="utf-8"?>
<!-- Generator: Adobe Illustrator 16.0.0, SVG Export Plug-In . SVG Version: 6.00 Build 0)  -->
<!DOCTYPE svg PUBLIC "-//W3C//DTD SVG 1.1//EN" "http://www.w3.org/Graphics/SVG/1.1/DTD/svg11.dtd">
<svg version="1.1" id="Ebene_1" xmlns="http://www.w3.org/2000/svg" xmlns:xlink="http://www.w3.org/1999/xlink" x="0px" y="0px"
	 width="183px" height="48px" viewBox="0 0 183 48" enable-background="new 0 0 183 48" xml:space="preserve">
<g>
	<g>
		<g>
			<polygon fill-rule="evenodd" clip-rule="evenodd" fill="#FFFFFF" points="86.446,11.127 69.58,11.127 69.58,33.918 
				86.609,33.918 86.609,30.304 73.552,30.304 73.552,24.216 84.981,24.216 84.981,20.602 73.552,20.602 73.552,14.741 
				86.446,14.741 			"/>
			<polygon fill-rule="evenodd" clip-rule="evenodd" fill="#FFFFFF" points="108.645,26.886 96.461,11.127 92.754,11.127 
				92.754,33.918 96.727,33.918 96.727,17.705 109.268,33.918 112.615,33.918 112.615,11.127 108.645,11.127 			"/>
			<path fill-rule="evenodd" clip-rule="evenodd" fill="#FFFFFF" d="M143.572,11.127h-23.734v3.711h3.973h2.91h16.852V11.127
				L143.572,11.127z M119.838,20.602L119.838,20.602v13.316h17.029v-3.614h-13.057v-6.088h11.428v-3.614h-8.518h-2.91H119.838z"/>
			<polygon fill-rule="evenodd" clip-rule="evenodd" fill="#FFFFFF" points="152.652,14.838 159.879,14.838 159.879,11.127 
				141.387,11.127 141.387,14.838 148.615,14.838 148.615,33.918 152.652,33.918 			"/>
			<polygon fill-rule="evenodd" clip-rule="evenodd" fill="#FFFFFF" points="165.637,11.127 182.502,11.127 182.502,33.918 
				165.475,33.918 165.475,30.304 178.531,30.304 178.531,24.216 167.102,24.216 167.102,20.602 178.531,20.602 178.531,14.741 
				165.637,14.741 			"/>
		</g>
		<path fill-rule="evenodd" clip-rule="evenodd" fill="#FFFFFF" d="M73.491,41.247l-2.999-3.878H69.58v5.608h0.978v-3.99l3.086,3.99
			h0.824v-5.608h-0.977V41.247L73.491,41.247z M82.107,37.369L82.107,37.369h-4.151v5.608h4.191v-0.89h-3.213V40.59h2.813V39.7
			h-2.813v-1.442h3.173V37.369L82.107,37.369z M87.743,38.282L87.743,38.282h1.779v-0.913H84.97v0.913h1.779v4.695h0.993V38.282
			L87.743,38.282z M94.58,41.527L94.58,41.527l-1.338-4.158h-1.066l1.955,5.648h0.85l1.379-4.03l1.379,4.03h0.848l1.955-5.648
			h-1.033l-1.338,4.158l-1.379-4.175h-0.832L94.58,41.527L94.58,41.527z M108.91,40.165L108.91,40.165
			c0-0.396-0.072-0.769-0.217-1.122c-0.145-0.353-0.344-0.659-0.602-0.921c-0.256-0.262-0.563-0.469-0.92-0.621
			c-0.359-0.152-0.754-0.229-1.186-0.229c-0.434,0-0.828,0.078-1.188,0.232c-0.357,0.154-0.668,0.364-0.93,0.629
			s-0.465,0.573-0.609,0.926c-0.143,0.353-0.215,0.727-0.215,1.121c0,0.396,0.072,0.77,0.215,1.122
			c0.145,0.353,0.346,0.66,0.602,0.922s0.564,0.469,0.922,0.621s0.754,0.229,1.186,0.229c0.434,0,0.828-0.078,1.186-0.232
			c0.357-0.155,0.668-0.364,0.93-0.63c0.262-0.264,0.465-0.572,0.609-0.925S108.91,40.561,108.91,40.165L108.91,40.165z
			 M107.877,40.181L107.877,40.181c0,0.273-0.047,0.53-0.141,0.773s-0.225,0.454-0.389,0.633c-0.166,0.18-0.365,0.321-0.598,0.426
			c-0.232,0.104-0.486,0.156-0.764,0.156c-0.279,0-0.537-0.054-0.77-0.161c-0.236-0.106-0.438-0.251-0.605-0.433
			s-0.299-0.394-0.393-0.637s-0.141-0.501-0.141-0.773s0.047-0.53,0.141-0.773s0.223-0.453,0.389-0.633
			c0.166-0.179,0.363-0.32,0.596-0.425c0.234-0.104,0.488-0.156,0.766-0.156c0.279,0,0.535,0.054,0.77,0.16
			c0.234,0.107,0.436,0.252,0.605,0.433c0.168,0.182,0.299,0.395,0.393,0.638S107.877,39.908,107.877,40.181L107.877,40.181z
			 M116.908,42.978L116.908,42.978l-1.514-2.123c0.197-0.054,0.377-0.13,0.541-0.229s0.305-0.219,0.422-0.36
			s0.209-0.305,0.275-0.489c0.066-0.184,0.1-0.394,0.1-0.629c0-0.272-0.047-0.52-0.145-0.741c-0.096-0.222-0.234-0.409-0.412-0.561
			c-0.178-0.152-0.396-0.27-0.656-0.354c-0.26-0.082-0.549-0.123-0.869-0.123h-2.5v5.608h0.977v-1.955h1.238l1.383,1.955H116.908
			L116.908,42.978z M115.732,39.199L115.732,39.199c0,0.29-0.105,0.521-0.314,0.692c-0.209,0.172-0.49,0.258-0.844,0.258h-1.447
			v-1.892h1.439c0.369,0,0.656,0.079,0.859,0.238C115.631,38.653,115.732,38.888,115.732,39.199L115.732,39.199z M122.514,39.78
			L122.514,39.78l2.332-2.411h-1.211l-2.668,2.82v-2.82h-0.979v5.608h0.979v-1.627l0.873-0.896l1.914,2.523h1.195L122.514,39.78
			L122.514,39.78z M134.416,37.369L134.416,37.369h-4.168v5.608h0.977v-2.283h2.828v-0.89h-2.828v-1.547h3.191V37.369
			L134.416,37.369z M142.262,37.369L142.262,37.369h-0.977v3.229c0,0.519-0.127,0.908-0.379,1.17
			c-0.254,0.262-0.6,0.393-1.041,0.393c-0.445,0-0.795-0.136-1.045-0.408c-0.254-0.272-0.379-0.671-0.379-1.194v-3.188h-0.979v3.229
			c0,0.406,0.057,0.763,0.168,1.07c0.113,0.307,0.273,0.564,0.48,0.772c0.209,0.209,0.459,0.365,0.754,0.469
			c0.293,0.104,0.623,0.156,0.984,0.156c0.369,0,0.703-0.052,0.998-0.156c0.297-0.104,0.549-0.262,0.758-0.473
			s0.369-0.474,0.484-0.789s0.172-0.681,0.172-1.098V37.369L142.262,37.369z M141.156,36.912L141.156,36.912v-0.945h-0.977v0.945
			H141.156L141.156,36.912z M139.555,36.912L139.555,36.912v-0.945h-0.979v0.945H139.555L139.555,36.912z M150.422,42.978
			L150.422,42.978l-1.514-2.123c0.197-0.054,0.377-0.13,0.541-0.229c0.162-0.099,0.303-0.219,0.42-0.36s0.209-0.305,0.277-0.489
			c0.066-0.184,0.1-0.394,0.1-0.629c0-0.272-0.047-0.52-0.145-0.741c-0.096-0.222-0.234-0.409-0.414-0.561
			c-0.178-0.152-0.396-0.27-0.654-0.354c-0.26-0.082-0.549-0.123-0.871-0.123h-2.5v5.608h0.979v-1.955h1.238l1.381,1.955H150.422
			L150.422,42.978z M149.244,39.199L149.244,39.199c0,0.29-0.104,0.521-0.313,0.692c-0.209,0.172-0.49,0.258-0.846,0.258h-1.445
			v-1.892h1.438c0.371,0,0.658,0.079,0.859,0.238C149.143,38.653,149.244,38.888,149.244,39.199L149.244,39.199z M158.807,37.329
			L158.807,37.329h-0.914l-2.467,5.648h1.01l0.576-1.354h2.65l0.57,1.354h1.043L158.807,37.329L158.807,37.329z M159.303,40.75
			L159.303,40.75h-1.932l0.961-2.243L159.303,40.75L159.303,40.75z M164.281,42.978L164.281,42.978h3.928v-0.89h-2.949v-4.719
			h-0.979V42.978L164.281,42.978z M171.287,42.978L171.287,42.978h3.926v-0.89h-2.947v-4.719h-0.979V42.978L171.287,42.978z
			 M182.445,37.369L182.445,37.369h-4.15v5.608h4.189v-0.89h-3.213V40.59h2.813V39.7h-2.813v-1.442h3.174V37.369z"/>
	</g>
	<g>
		<path fill-rule="evenodd" clip-rule="evenodd" fill="#FFFFFF" d="M48.429,38.605c-5.365,5.364-12.948,7.161-19.798,5.389
			l-4.573,1.552c8.712,3.947,19.326,2.339,26.489-4.823c3.691-3.691,5.907-8.3,6.648-13.092l-3.721,2.748
			C52.5,33.387,50.818,36.216,48.429,38.605z"/>
		<path fill-rule="evenodd" clip-rule="evenodd" fill="#FFFFFF" d="M14.46,36.877c-6.359,2.047-6.968-5.458-3.87-8.446
			C10.673,30.752,11.97,33.852,14.46,36.877L14.46,36.877z M1.07,36.926L1.07,36.926c-1.68,4.584,0.345,7.104,6.074,7.563
			c4.137,0.271,8.314-0.496,12.513-1.37c18.892-4.709,33.533-14.888,47.979-26.802c-3.774,2.479-7.171,4.645-10.191,6.496
			c-0.282-5.65-2.582-11.219-6.897-15.535c-3.983-3.982-9.206-6.396-14.812-6.85c-6.943-0.559-13.719,1.936-18.634,6.85
			c-4.139,4.139-6.586,9.621-6.894,15.475c-0.026,0.492-0.037,0.984-0.032,1.477C7.163,26.606,2.552,33.078,1.07,36.926L1.07,36.926
			z M54.47,24.607L54.47,24.607c0.16-5.486-1.853-11.024-6.041-15.212c-8.066-8.065-21.144-8.065-29.209,0
			c-5.624,5.623-9.017,17.388-2.924,23.819C25.07,42.479,44.979,30.232,54.47,24.607z"/>
		<path fill-rule="evenodd" clip-rule="evenodd" fill="#FFFFFF" d="M47.464,27.299v-1.786c-2.521,0.889-5.041,1.773-7.563,2.659
			v3.032C42.556,29.977,45.13,28.61,47.464,27.299z"/>
		<polygon fill-rule="evenodd" clip-rule="evenodd" fill="#FFFFFF" points="43.684,20.793 38.381,17.079 38.381,24.266 
			43.684,22.918 		"/>
		<path fill-rule="evenodd" clip-rule="evenodd" fill="#FFFFFF" d="M25.745,35.6V22.944l-5.688,3.283v8.5
			C23.146,35.845,23.203,35.86,25.745,35.6z"/>
		<path fill-rule="evenodd" clip-rule="evenodd" fill="#FFFFFF" d="M46.89,22.695l3.414-1.248v4.617l-1.415,0.78v-3.377
			l-1.999,0.731v0.007l-0.46,0.162l-0.398,0.146l-0.002-0.005l-7.551,2.654v4.62l-1.415,0.613v-6.234l8.411-2.957v-2.777
			l-9.365-6.645v19.011l-1.415,0.575c0-7.828,0-15.664,0-23.451l-10.48,7.523v3.221l2.7-1.56l1.061-0.617v17.097l-1.415,0.315
			v-14.96l-2.346,1.354v0.013h-0.021l-5.34,3.082v9.122l-0.673-0.514c-0.206-0.157-0.406-0.32-0.6-0.49l-0.142-0.125v-8.808
			l5.36-3.094v-4.761l13.31-9.555v4.886l10.78,7.652V22.695z"/>
		<path fill-rule="evenodd" clip-rule="evenodd" fill="#FFFFFF" d="M33.82,32.186V13.541l-4.761,3.309v17.411
			C31.592,33.081,29.059,34.261,33.82,32.186z"/>
	</g>
</g>
</svg>
