<?xml version="1.0" encoding="UTF-8" standalone="no"?>
<!-- Created with Inkscape (http://www.inkscape.org/) by Marsupilami -->
<svg
   xmlns:svg="http://www.w3.org/2000/svg"
   xmlns="http://www.w3.org/2000/svg"
   version="1.0"
   width="1024"
   height="221"
   viewBox="0 0 141.7325 30.581007"
   id="svg2483"
   xml:space="preserve"><defs
     id="defs2486" /><g
     transform="translate(-356.51875,-692.58605)"
     style="display:inline"
     id="layer1"><path
       d="M 126.46875,0 C 123.31725,0.010599061 120.14836,0.8771875 117.75,2.5 C 113.035,5.6874999 110.635,11.22125 111.09375,16.1875 C 112.21875,14.795 114.0425,13.885 115.84375,13.625 C 120.84875,12.9075 124.93,15.7875 129.71875,16.53125 C 134.06374,17.20625 138.42875,15.9875 141.5625,13.03125 C 141.28375,10.71875 140.41,8.48625 139.03125,6.59375 C 138.22999,7.21875 136.5625,8.34375 136.5625,8.34375 L 138.0625,13.3125 L 133.90625,10.34375 L 129.6875,13.28125 L 131.25,8.34375 L 127.0625,5.28125 L 132.25,5.28125 C 132.25,5.28125 133.02875,2.7675 133.46875,1.625 C 131.37258,0.52085937 128.91992,-0.0082437145 126.46875,0 z M 134.59375,2.3125 C 134.94376,3.4474999 135.5625,5.28125 135.5625,5.28125 C 135.5625,5.2812502 137.60125,5.28125 138.09375,5.28125 C 137.105,4.1237498 135.93875,3.04875 134.59375,2.3125 z "
       transform="translate(356.51875,692.58605)"
       style="fill:#f89d0e;fill-opacity:1;fill-rule:nonzero;stroke:none"
       id="path2467" /><path
       d="M 141.71875,15.8125 C 138.98,18.79375 135.225,20.00125 131.03125,20 C 127.43625,20 124.035,18.39625 120.0625,18.40625 C 117.21,18.417499 114.4525,19.225 112.6875,22.09375 C 113.5375,23.759999 114.7675,25.48625 116.25,26.71875 C 119.22375,22.12375 125.92625,23.7225 130.78125,23.71875 C 134.30625,23.710001 137.0875,22.68 139.25,21.15625 C 139.76751,20.79375 140.4675,20.20625 140.84375,19.625 C 141.66875,18.35875 141.715,16.51125 141.71875,15.8125 z M 139,23.9375 C 136.24751,26.202501 132.54375,26.53 130.78125,26.65625 C 129.01875,26.786251 122.97125,26.2925 121.34375,29.6875 C 127.89,32.07125 135.51875,29.52 139,23.9375 z "
       transform="translate(356.51875,692.58605)"
       style="fill:#126ab4;fill-opacity:1;fill-rule:nonzero;stroke:none"
       id="path2471" /><path
       d="M 0,10.03125 C 0.26125,10.285 0.465,10.47625 0.5625,10.65625 L 0.75,11.03125 L 4.71875,20.46875 L 7.84375,20.46875 L 11.75,11.09375 L 11.9375,10.6875 C 12.09,10.42 12.21625,10.26375 12.46875,10.03125 L 9.03125,10.03125 C 9.2687502,10.17375 9.375,10.37375 9.375,10.65625 C 9.3749996,10.9075 9.22875,11.33125 8.96875,11.875 L 6.625,17.5625 L 4.21875,11.875 C 3.8962501,11.06125 3.8125,10.88875 3.8125,10.65625 C 3.8125,10.37375 3.9525,10.1875 4.1875,10.03125 L 0,10.03125 z M 15.09375,10.03125 L 11.1875,19.40625 L 10.96875,19.8125 C 10.8175,20.07875 10.68875,20.236249 10.4375,20.46875 L 13.90625,20.46875 C 13.67,20.32125 13.5625,20.0925 13.5625,19.8125 C 13.5625,19.56125 13.67875,19.168749 13.9375,18.625 L 14.125,18.15625 L 18.5,18.15625 L 18.71875,18.625 C 19.03875,19.43125 19.09375,19.575001 19.09375,19.8125 C 19.09375,20.09125 18.988751,20.321249 18.75,20.46875 L 22.9375,20.46875 C 22.67625,20.22875 22.4725,20.022499 22.375,19.84375 L 22.1875,19.46875 L 18.21875,10.03125 L 15.09375,10.03125 z M 22.125,10.03125 L 22.125,12.625 C 22.691251,12.055 23.4025,12.0625 24.53125,12.0625 L 24.9375,12.0625 L 24.9375,19.125 C 24.9375,19.911251 24.8575,20.1675 24.46875,20.46875 L 28.21875,20.46875 C 27.83125,20.167499 27.75,19.91125 27.75,19.125 L 27.75,12.0625 L 28.1875,12.0625 C 29.428749,12.0625 29.93,12.06875 30.5625,12.625 L 30.5625,10.03125 L 22.125,10.03125 z M 31.65625,10.03125 L 31.65625,12.625 C 32.222501,12.055 32.935,12.0625 34.0625,12.0625 L 34.46875,12.0625 L 34.46875,19.125 C 34.468749,19.911251 34.385,20.1675 34,20.46875 L 37.75,20.46875 C 37.36625,20.167499 37.28125,19.91125 37.28125,19.125 L 37.28125,12.0625 L 37.71875,12.0625 C 38.96125,12.0625 39.4625,12.06875 40.09375,12.625 L 40.09375,10.03125 L 31.65625,10.03125 z M 41.34375,10.03125 C 41.713749,10.2975 41.78125,10.54625 41.78125,10.90625 L 41.8125,19.59375 C 41.807499,20.165 41.61125,20.2275 41.34375,20.4375 L 50.4375,20.4375 L 50.46875,17.8125 C 49.944999,18.486251 49.51375,18.41 48.4375,18.40625 L 44.625,18.40625 L 44.625,16.1875 L 47.5625,16.1875 C 48.20125,16.187499 49.28125,15.73875 49.28125,13.96875 C 49.281249,14.00125 48.9,14.1175 47.90625,14.125 L 44.625,14.125 L 44.625,12.0625 L 48.34375,12.0625 C 48.34375,12.0625 49.86625,11.97 50.21875,12.5625 L 50.21875,10.03125 L 41.34375,10.03125 z M 52.5,10.03125 C 52.697501,10.18625 52.75625,10.27125 52.84375,10.46875 C 52.938748,10.6825 52.945,10.7075 52.96875,10.90625 L 52.96875,19.5625 C 52.9475,19.7075 52.91375,19.87625 52.84375,20.03125 C 52.754998,20.23 52.695,20.3125 52.5,20.46875 L 55.46875,20.46875 C 55.27125,20.313749 55.2125,20.23 55.125,20.03125 C 55.057501,19.87625 55.0075,19.70375 55,19.5625 L 55,13.5625 L 58.90625,20.46875 L 62.0625,20.46875 L 62.0625,11.375 C 62.0625,10.5825 62.14375,10.33 62.53125,10.03125 L 59.53125,10.03125 C 59.932499,10.34375 60,10.5775 60,11.375 L 60,16.53125 L 56.28125,10.03125 L 52.5,10.03125 z M 64.71875,10.03125 C 65.06375,10.31375 65.187498,10.44625 65.1875,10.9375 L 65.1875,19.5625 C 65.18875,19.9025 64.980001,20.252499 64.71875,20.46875 L 68.46875,20.46875 C 68.1525,20.23625 68.002502,19.9375 68,19.5625 L 68,16.5625 L 70.9375,16.5625 C 71.57125,16.5625 72.656251,16.09125 72.65625,14.3125 C 72.65625,14.35 72.242503,14.49375 71.25,14.5 L 68,14.5 L 68,12.09375 L 71.71875,12.09375 C 71.71875,12.09375 73.118752,11.98625 73.46875,12.5625 L 73.46875,10.0625 L 64.71875,10.03125 z M 77.3125,10.03125 L 73.40625,19.40625 L 73.21875,19.8125 C 73.0675,20.07875 72.942497,20.236249 72.6875,20.46875 L 76.15625,20.46875 C 75.92,20.32125 75.781249,20.0925 75.78125,19.8125 C 75.78125,19.56125 75.928752,19.168749 76.1875,18.625 L 76.375,18.15625 L 80.75,18.15625 L 80.9375,18.625 C 81.2575,19.43125 81.343747,19.575001 81.34375,19.8125 C 81.34375,20.09125 81.232498,20.321249 81,20.46875 L 85.15625,20.46875 C 84.89125,20.22875 84.693752,20.022499 84.59375,19.84375 L 84.40625,19.46875 L 80.4375,10.03125 L 77.3125,10.03125 z M 86.3125,10.03125 C 86.312498,10.03125 86.6025,10.26875 86.6875,10.46875 C 86.759998,10.63125 86.78125,10.7775 86.78125,10.90625 L 86.78125,19.53125 C 86.773752,19.69625 86.72625,19.88 86.65625,20.03125 C 86.567501,20.23125 86.5075,20.3075 86.3125,20.46875 L 94.75,20.46875 L 94.75,17.8125 C 93.998751,18.461251 93.97875,18.40625 92.5625,18.40625 L 89.59375,18.40625 L 89.59375,10.90625 C 89.593747,10.75375 89.6325,10.63125 89.71875,10.46875 C 89.826247,10.27 90.0625,10.03125 90.0625,10.03125 L 86.3125,10.03125 z M 96.0625,10.03125 C 96.065001,10.03125 96.31375,10.26875 96.40625,10.46875 C 96.475003,10.63125 96.53125,10.7775 96.53125,10.90625 L 96.53125,19.53125 C 96.52375,19.69625 96.4725,19.88 96.40625,20.03125 C 96.313748,20.23125 96.2575,20.3075 96.0625,20.46875 L 104.5,20.46875 L 104.5,17.8125 C 103.75,18.461251 103.73,18.40625 102.3125,18.40625 L 99.34375,18.40625 L 99.34375,10.90625 C 99.343753,10.75375 99.37875,10.63125 99.46875,10.46875 C 99.573746,10.27 99.8125,10.03125 99.8125,10.03125 L 96.0625,10.03125 z M 16.3125,12.9375 L 17.65625,16.09375 L 15,16.09375 L 16.3125,12.9375 z M 78.53125,12.9375 L 79.875,16.09375 L 77.21875,16.09375 L 78.53125,12.9375 z "
       transform="translate(356.51875,692.58605)"
       style="fill:#231f20;fill-opacity:1;fill-rule:nonzero;stroke:none"
       id="path2475" /></g></svg>
