<svg width="17" height="16" viewBox="0 0 17 16" fill="none" xmlns="http://www.w3.org/2000/svg">
<g id="&#226;&#152;&#133; Icon">
<path id="Icon" fill-rule="evenodd" clip-rule="evenodd" d="M8.80845 2.66797C11.2404 2.66797 13.5424 3.59797 15.2918 5.2873C15.5564 5.54264 15.5638 5.9653 15.3084 6.22997C15.1778 6.3653 15.0031 6.4333 14.8291 6.4333C14.6624 6.4333 14.4951 6.3713 14.3658 6.24597C12.8658 4.79864 10.8924 4.0013 8.80845 4.0013C6.72445 4.0013 4.75111 4.79864 3.25111 6.24597C2.98778 6.50264 2.56511 6.4953 2.30845 6.22997C2.05378 5.9653 2.06045 5.54264 2.32578 5.2873C4.07511 3.59797 6.37711 2.66797 8.80845 2.66797ZM8.80872 6.00118C7.19005 6.00118 5.61672 6.66852 4.49205 7.83318C4.23738 8.09852 4.24405 8.52052 4.50938 8.77585C4.77338 9.03185 5.19672 9.02452 5.45205 8.75985C6.32605 7.85385 7.54938 7.33452 8.80872 7.33452C10.068 7.33452 11.2914 7.85385 12.1654 8.75985C12.296 8.89518 12.4707 8.96318 12.6454 8.96318C12.812 8.96318 12.9794 8.90118 13.108 8.77585C13.3734 8.52052 13.38 8.09852 13.1254 7.83318C12.0007 6.66852 10.4274 6.00118 8.80872 6.00118ZM6.49338 10.2698C7.11805 9.66718 7.94005 9.33452 8.80872 9.33452C9.67738 9.33452 10.4994 9.66718 11.1241 10.2698C11.3887 10.5258 11.3961 10.9479 11.1407 11.2125C11.01 11.3485 10.8354 11.4165 10.6607 11.4165C10.4941 11.4165 10.3267 11.3539 10.198 11.2292C9.44805 10.5052 8.16938 10.5052 7.41938 11.2292C7.15605 11.4852 6.73338 11.4778 6.47672 11.2125C6.22138 10.9479 6.22872 10.5258 6.49338 10.2698ZM8.14206 12.6678C8.14206 12.2998 8.44006 12.0012 8.80872 12.0012C9.17739 12.0012 9.47539 12.2998 9.47539 12.6678C9.47539 13.0358 9.17739 13.3345 8.80872 13.3345C8.44006 13.3345 8.14206 13.0358 8.14206 12.6678Z" fill="#8F9BB3"/>
</g>
</svg>
